<svg xmlns="http://www.w3.org/2000/svg" xmlns:xlink="http://www.w3.org/1999/xlink" width="500" zoomAndPan="magnify" viewBox="0 0 375 374.999991" height="500" preserveAspectRatio="xMidYMid meet" version="1.0"><defs><g/><clipPath id="d9e2098544"><path d="M 93.828125 20.140625 L 281.328125 20.140625 L 281.328125 261.640625 L 93.828125 261.640625 Z M 93.828125 20.140625 " clip-rule="nonzero"/></clipPath></defs><rect x="-37.5" width="450" fill="#ffffff" y="-37.499999" height="449.999989" fill-opacity="1"/><rect x="-37.5" width="450" fill="#000000" y="-37.499999" height="449.999989" fill-opacity="1"/><g clip-path="url(#d9e2098544)"><path fill="#ffffff" d="M 187.496094 20.265625 L 93.832031 171.84375 L 187.496094 261.351562 L 281.160156 171.84375 Z M 96.828125 171.460938 L 187.496094 24.734375 L 278.164062 171.460938 L 187.496094 258.101562 Z M 96.828125 171.460938 " fill-opacity="1" fill-rule="nonzero"/></g><path fill="#ffffff" d="M 193.75 240.578125 L 266.238281 169.878906 L 246.445312 137.1875 C 246.4375 137.058594 246.429688 136.980469 246.425781 136.953125 L 246.3125 136.964844 L 187.492188 39.816406 L 109.234375 169.078125 L 108.75 169.878906 L 187.496094 246.675781 L 193.199219 241.117188 L 193.308594 241.203125 C 193.335938 241.171875 193.5 240.953125 193.75 240.578125 Z M 151.644531 142.109375 C 157 152.214844 166.648438 159.210938 180.320312 162.886719 L 180.933594 160.617188 C 178.300781 159.910156 175.828125 159.070312 173.511719 158.109375 C 175.929688 157.148438 177.917969 155.378906 178.71875 153.984375 C 179.617188 152.40625 179.984375 150.566406 179.78125 148.664062 C 179.578125 146.765625 179.429688 142.917969 180.691406 138.453125 C 181.175781 136.738281 182.503906 135.441406 184.242188 134.988281 C 186.003906 134.53125 187.816406 135.023438 189.097656 136.304688 L 190.414062 137.621094 L 191.757812 133.835938 L 191.777344 133.726562 C 191.785156 133.671875 192.566406 129.011719 197.914062 126.648438 C 197.148438 128.277344 196.261719 130.613281 195.6875 133.589844 C 194.996094 137.15625 194.886719 140.921875 195.363281 144.78125 C 195.957031 149.578125 197.460938 154.535156 199.835938 159.511719 C 207.207031 174.957031 198.65625 187.230469 194.636719 191.789062 C 193.332031 193.269531 192.109375 194.800781 190.96875 196.382812 C 191.578125 192.066406 191.136719 188.058594 189.644531 184.621094 C 186.632812 177.6875 179.53125 172.96875 168.535156 170.589844 C 153.820312 167.40625 143.707031 161.328125 138.472656 152.523438 C 135.207031 147.023438 134.523438 141.46875 134.527344 137.769531 C 134.527344 133.734375 135.328125 130.964844 135.335938 130.9375 L 135.113281 130.875 L 147.921875 109.714844 C 147.582031 111.523438 147.265625 113.636719 147.058594 115.96875 C 146.460938 122.824219 146.769531 132.914062 151.644531 142.109375 Z M 230.074219 120.40625 C 229.832031 117.621094 229.449219 115.097656 229.054688 112.996094 L 244.128906 137.894531 C 244.191406 139.824219 244.070312 145.492188 241.140625 151.582031 C 236.320312 161.59375 226.566406 167.988281 212.148438 170.585938 L 211.765625 170.65625 C 209.417969 171.078125 207.179688 171.484375 205.078125 171.992188 C 205.113281 168.007812 204.3125 164.039062 202.679688 160.117188 C 203.015625 160.058594 203.359375 160 203.710938 159.941406 C 204.691406 159.78125 205.707031 159.613281 206.742188 159.375 C 215.371094 157.40625 221.746094 152.941406 225.683594 146.101562 C 227.792969 142.4375 229.203125 138.078125 229.871094 133.144531 C 230.402344 129.226562 230.46875 124.941406 230.074219 120.40625 Z M 136.429688 153.695312 C 142.007812 163.105469 152.640625 169.5625 168.039062 172.890625 C 178.246094 175.097656 184.789062 179.359375 187.484375 185.550781 C 189.289062 189.699219 189.078125 194.152344 188.363281 197.683594 C 188.105469 197.296875 187.808594 196.898438 187.464844 196.496094 C 185.511719 194.222656 181.644531 191.347656 174.292969 190.554688 C 154.871094 188.460938 140.484375 180.25 131.835938 173.726562 C 122.574219 166.746094 117.726562 160.152344 117.542969 159.902344 L 132.253906 135.609375 C 132.207031 136.253906 132.183594 136.945312 132.179688 137.675781 C 132.160156 141.679688 132.886719 147.710938 136.429688 153.695312 Z M 196.398438 193.347656 C 198.488281 190.976562 202.261719 186.003906 204.054688 179.332031 C 204.488281 177.703125 204.785156 176.070312 204.941406 174.445312 C 207.171875 173.875 209.613281 173.433594 212.179688 172.96875 L 212.5625 172.902344 C 220.917969 171.394531 227.902344 168.582031 233.316406 164.542969 C 237.6875 161.28125 241.050781 157.226562 243.308594 152.492188 C 245.285156 148.339844 246.0625 144.421875 246.347656 141.558594 L 258.042969 160.878906 C 257.117188 162.03125 252.898438 167.136719 246.78125 172.480469 C 240.433594 178.019531 230.707031 184.941406 220.410156 186.441406 C 213.863281 187.398438 207.894531 189.125 202.671875 191.582031 C 199.050781 193.285156 195.78125 195.339844 192.925781 197.699219 C 194.007812 196.203125 195.164062 194.75 196.398438 193.347656 Z M 225.644531 107.363281 L 225.335938 107.457031 C 225.351562 107.515625 227.097656 113.199219 227.738281 120.664062 C 228.324219 127.472656 228.089844 137.214844 223.640625 144.933594 C 220.039062 151.179688 214.179688 155.265625 206.214844 157.082031 C 205.246094 157.304688 204.265625 157.464844 203.320312 157.621094 C 202.777344 157.710938 202.222656 157.804688 201.675781 157.90625 C 196.871094 147.53125 196.996094 139.292969 197.964844 134.171875 C 199.035156 128.523438 201.332031 125.335938 201.355469 125.304688 L 203.226562 122.777344 L 200.15625 123.457031 C 195.273438 124.542969 192.628906 127.144531 191.269531 129.140625 C 189.976562 131.039062 189.566406 132.765625 189.472656 133.238281 L 189.367188 133.539062 C 187.675781 132.503906 185.636719 132.191406 183.648438 132.710938 C 181.097656 133.375 179.144531 135.28125 178.429688 137.808594 C 177.054688 142.65625 177.222656 146.84375 177.441406 148.910156 C 177.589844 150.300781 177.316406 151.6875 176.675781 152.8125 C 175.945312 154.085938 173.03125 156.460938 170.050781 156.460938 L 170.050781 156.515625 C 162.691406 152.785156 157.21875 147.601562 153.726562 141.015625 C 149.128906 132.347656 148.832031 122.761719 149.394531 116.246094 C 150.007812 109.144531 151.742188 104.039062 151.769531 103.960938 L 151.464844 103.855469 L 187.496094 44.351562 Z M 116.230469 162.0625 C 117.820312 164.082031 122.496094 169.617188 130.339844 175.546875 C 136 179.824219 142.140625 183.410156 148.585938 186.199219 C 156.644531 189.6875 165.207031 191.941406 174.039062 192.890625 C 179.179688 193.441406 183.167969 195.179688 185.578125 197.910156 C 186.664062 199.140625 187.207031 200.324219 187.46875 201.074219 C 187.171875 201.988281 186.855469 202.828125 186.550781 203.566406 C 185.976562 204.671875 185.433594 205.792969 184.933594 206.933594 C 184.917969 206.960938 184.90625 206.980469 184.90625 206.984375 L 184.910156 206.984375 C 184.46875 207.773438 184.265625 208.253906 184.242188 208.3125 L 184.335938 208.351562 C 182.199219 213.597656 180.898438 219.058594 180.464844 224.605469 C 180.167969 228.464844 180.179688 232.476562 180.492188 236.570312 L 111.726562 169.5 Z M 183.089844 239.101562 C 182.546875 234.1875 182.453125 229.375 182.808594 224.785156 C 183.257812 219.019531 184.730469 213.292969 187.105469 207.878906 C 188.027344 206.296875 189.933594 203.492188 193.273438 200.5 C 197.972656 196.289062 206.554688 190.839844 220.75 188.769531 C 225.566406 188.066406 230.640625 186.21875 235.828125 183.265625 C 239.949219 180.925781 244.152344 177.894531 248.324219 174.25 C 253.828125 169.445312 257.761719 164.914062 259.335938 163.015625 L 263.261719 169.496094 L 196.808594 234.308594 C 197.003906 233.738281 197.1875 233.140625 197.355469 232.515625 C 198.636719 227.714844 199.097656 220.421875 194.011719 212.929688 L 192.066406 214.25 C 195.734375 219.652344 196.757812 225.5625 195.105469 231.824219 C 194.199219 235.273438 192.683594 237.890625 191.917969 239.078125 L 187.496094 243.394531 Z M 183.089844 239.101562 " fill-opacity="1" fill-rule="nonzero"/><g fill="#ffffff" fill-opacity="1"><g transform="translate(90.957186, 314.206618)"><g><path d="M 2.671875 -33.4375 L 18.0625 -33.4375 C 19.75 -33.4375 21.195312 -33.21875 22.40625 -32.78125 C 23.625 -32.351562 24.625 -31.78125 25.40625 -31.0625 C 26.1875 -30.351562 26.804688 -29.566406 27.265625 -28.703125 C 27.722656 -27.847656 28.039062 -27 28.21875 -26.15625 C 28.394531 -25.320312 28.484375 -24.570312 28.484375 -23.90625 C 28.484375 -23.238281 28.394531 -22.484375 28.21875 -21.640625 C 28.039062 -20.804688 27.722656 -19.96875 27.265625 -19.125 C 26.804688 -18.28125 26.1875 -17.492188 25.40625 -16.765625 C 24.625 -16.046875 23.628906 -15.46875 22.421875 -15.03125 C 21.222656 -14.59375 19.769531 -14.375 18.0625 -14.375 L 5.34375 -14.375 L 5.34375 0 L 2.671875 0 Z M 5.34375 -16.71875 C 5.34375 -16.226562 5.5 -15.828125 5.8125 -15.515625 C 6.125 -15.203125 6.523438 -15.046875 7.015625 -15.046875 L 15.109375 -15.046875 C 18.453125 -15.046875 20.988281 -15.84375 22.71875 -17.4375 C 24.445312 -19.03125 25.3125 -21.1875 25.3125 -23.90625 C 25.3125 -26.625 24.445312 -28.785156 22.71875 -30.390625 C 20.988281 -31.992188 18.453125 -32.796875 15.109375 -32.796875 C 14.242188 -32.796875 13.273438 -32.796875 12.203125 -32.796875 C 11.128906 -32.796875 10.128906 -32.789062 9.203125 -32.78125 C 8.285156 -32.769531 7.59375 -32.765625 7.125 -32.765625 C 6.519531 -32.765625 6.070312 -32.613281 5.78125 -32.3125 C 5.488281 -32.007812 5.34375 -31.40625 5.34375 -30.5 Z M 5.34375 -16.71875 "/></g></g></g><g fill="#ffffff" fill-opacity="1"><g transform="translate(121.248371, 314.206618)"><g><path d="M 5.34375 0 L 2.671875 0 L 2.671875 -33.4375 L 5.34375 -33.4375 L 5.34375 -15.84375 C 6.332031 -16.976562 7.484375 -17.910156 8.796875 -18.640625 C 10.109375 -19.367188 11.507812 -19.910156 13 -20.265625 C 14.5 -20.617188 16.003906 -20.796875 17.515625 -20.796875 C 19.035156 -20.796875 20.5 -20.628906 21.90625 -20.296875 C 23.3125 -19.960938 24.59375 -19.472656 25.75 -18.828125 L 25.75 -33.4375 L 28.421875 -33.4375 L 28.421875 0 L 25.75 0 L 25.75 -16.109375 C 25.75 -16.941406 25.472656 -17.628906 24.921875 -18.171875 C 24.378906 -18.722656 23.648438 -19.128906 22.734375 -19.390625 C 21.816406 -19.660156 20.78125 -19.796875 19.625 -19.796875 C 18.425781 -19.796875 17.164062 -19.648438 15.84375 -19.359375 C 14.53125 -19.066406 13.253906 -18.632812 12.015625 -18.0625 C 10.785156 -17.5 9.660156 -16.800781 8.640625 -15.96875 C 7.628906 -15.132812 6.828125 -14.164062 6.234375 -13.0625 C 5.640625 -11.957031 5.34375 -10.734375 5.34375 -9.390625 Z M 5.34375 0 "/></g></g></g><g fill="#ffffff" fill-opacity="1"><g transform="translate(152.341976, 314.206618)"><g><path d="M 18.359375 0.671875 C 16.054688 0.671875 13.894531 0.257812 11.875 -0.5625 C 9.863281 -1.394531 8.09375 -2.578125 6.5625 -4.109375 C 5.039062 -5.648438 3.84375 -7.484375 2.96875 -9.609375 C 2.101562 -11.742188 1.671875 -14.113281 1.671875 -16.71875 C 1.671875 -19.320312 2.101562 -21.6875 2.96875 -23.8125 C 3.84375 -25.945312 5.039062 -27.78125 6.5625 -29.3125 C 8.09375 -30.851562 9.863281 -32.035156 11.875 -32.859375 C 13.894531 -33.691406 16.054688 -34.109375 18.359375 -34.109375 C 20.648438 -34.109375 22.804688 -33.691406 24.828125 -32.859375 C 26.847656 -32.035156 28.625 -30.851562 30.15625 -29.3125 C 31.695312 -27.78125 32.898438 -25.945312 33.765625 -23.8125 C 34.640625 -21.6875 35.078125 -19.320312 35.078125 -16.71875 C 35.078125 -14.113281 34.640625 -11.742188 33.765625 -9.609375 C 32.898438 -7.484375 31.695312 -5.648438 30.15625 -4.109375 C 28.625 -2.578125 26.847656 -1.394531 24.828125 -0.5625 C 22.804688 0.257812 20.648438 0.671875 18.359375 0.671875 Z M 4.34375 -16.71875 C 4.34375 -14.21875 4.703125 -11.941406 5.421875 -9.890625 C 6.148438 -7.847656 7.160156 -6.082031 8.453125 -4.59375 C 9.753906 -3.113281 11.242188 -1.976562 12.921875 -1.1875 C 14.609375 -0.394531 16.421875 0 18.359375 0 C 20.296875 0 22.109375 -0.394531 23.796875 -1.1875 C 25.492188 -1.976562 26.984375 -3.113281 28.265625 -4.59375 C 29.546875 -6.082031 30.554688 -7.847656 31.296875 -9.890625 C 32.035156 -11.941406 32.40625 -14.21875 32.40625 -16.71875 C 32.40625 -19.238281 32.035156 -21.515625 31.296875 -23.546875 C 30.554688 -25.585938 29.546875 -27.347656 28.265625 -28.828125 C 26.984375 -30.316406 25.492188 -31.457031 23.796875 -32.25 C 22.109375 -33.039062 20.296875 -33.4375 18.359375 -33.4375 C 16.421875 -33.4375 14.609375 -33.039062 12.921875 -32.25 C 11.242188 -31.457031 9.753906 -30.316406 8.453125 -28.828125 C 7.160156 -27.347656 6.148438 -25.585938 5.421875 -23.546875 C 4.703125 -21.515625 4.34375 -19.238281 4.34375 -16.71875 Z M 4.34375 -16.71875 "/></g></g></g><g fill="#ffffff" fill-opacity="1"><g transform="translate(189.085921, 314.206618)"><g><path d="M 2.671875 0 L 2.671875 -33.4375 L 25.84375 -33.4375 L 25.84375 -30.46875 C 25.15625 -30.6875 24.265625 -30.90625 23.171875 -31.125 C 22.078125 -31.351562 20.859375 -31.566406 19.515625 -31.765625 C 18.179688 -31.960938 16.785156 -32.132812 15.328125 -32.28125 C 13.867188 -32.425781 12.4375 -32.539062 11.03125 -32.625 C 9.625 -32.71875 8.3125 -32.765625 7.09375 -32.765625 C 6.488281 -32.765625 6.039062 -32.613281 5.75 -32.3125 C 5.457031 -32.007812 5.3125 -31.40625 5.3125 -30.5 L 5.3125 -19.921875 C 5.3125 -19.429688 5.46875 -19.03125 5.78125 -18.71875 C 6.09375 -18.40625 6.492188 -18.25 6.984375 -18.25 L 22.5625 -18.25 L 22.5625 -15.453125 C 21.582031 -15.691406 20.398438 -15.925781 19.015625 -16.15625 C 17.640625 -16.394531 16.203125 -16.613281 14.703125 -16.8125 C 13.210938 -17.019531 11.789062 -17.175781 10.4375 -17.28125 C 9.09375 -17.394531 7.953125 -17.453125 7.015625 -17.453125 C 6.523438 -17.453125 6.125 -17.332031 5.8125 -17.09375 C 5.5 -16.863281 5.34375 -16.492188 5.34375 -15.984375 L 5.3125 -2.9375 C 5.3125 -2.050781 5.457031 -1.453125 5.75 -1.140625 C 6.039062 -0.828125 6.488281 -0.671875 7.09375 -0.671875 C 8.3125 -0.671875 9.625 -0.710938 11.03125 -0.796875 C 12.4375 -0.890625 13.867188 -1.007812 15.328125 -1.15625 C 16.785156 -1.300781 18.179688 -1.472656 19.515625 -1.671875 C 20.859375 -1.867188 22.078125 -2.078125 23.171875 -2.296875 C 24.265625 -2.523438 25.15625 -2.75 25.84375 -2.96875 L 25.84375 0 Z M 2.671875 0 "/></g></g></g><g fill="#ffffff" fill-opacity="1"><g transform="translate(216.936428, 314.206618)"><g><path d="M 2.671875 0 L 2.671875 -33.4375 L 5.421875 -33.4375 C 8.804688 -28.625 12.253906 -23.742188 15.765625 -18.796875 C 19.273438 -13.847656 22.9375 -8.675781 26.75 -3.28125 C 27 -2.945312 27.210938 -2.78125 27.390625 -2.78125 C 27.648438 -2.78125 27.757812 -3.066406 27.71875 -3.640625 L 25.71875 -33.4375 L 28.515625 -33.4375 L 28.515625 0 L 25.84375 0 C 24.082031 -2.5 22.359375 -4.925781 20.671875 -7.28125 C 18.992188 -9.644531 17.304688 -12.019531 15.609375 -14.40625 C 13.921875 -16.789062 12.15625 -19.273438 10.3125 -21.859375 C 8.476562 -24.453125 6.523438 -27.21875 4.453125 -30.15625 C 4.222656 -30.488281 4.007812 -30.65625 3.8125 -30.65625 C 3.539062 -30.65625 3.429688 -30.367188 3.484375 -29.796875 L 5.484375 0 Z M 2.671875 0 "/></g></g></g><g fill="#ffffff" fill-opacity="1"><g transform="translate(248.130331, 314.206618)"><g><path d="M 2.671875 0 L 2.671875 -33.4375 L 5.34375 -33.4375 L 5.34375 0 Z M 2.671875 0 "/></g></g></g><g fill="#ffffff" fill-opacity="1"><g transform="translate(256.154486, 314.206618)"><g><path d="M 12.875 -15.953125 L 0.671875 -33.4375 L 4.046875 -33.4375 L 14.484375 -17.890625 L 23.84375 -33.4375 L 27.21875 -33.4375 L 14.875 -17.28125 L 27.1875 0 L 23.8125 0 L 13.28125 -15.34375 L 4.046875 0 L 0.671875 0 Z M 12.875 -15.953125 "/></g></g></g><g fill="#ffffff" fill-opacity="1"><g transform="translate(131.173441, 332.321945)"><g><path d="M 4.3125 -10.984375 C 5.3125 -10.984375 6.078125 -10.71875 6.609375 -10.1875 C 7.148438 -9.65625 7.421875 -8.894531 7.421875 -7.90625 C 7.421875 -6.738281 7.101562 -5.84375 6.46875 -5.21875 C 5.84375 -4.59375 4.941406 -4.28125 3.765625 -4.28125 L 2.234375 -4.28125 L 2.234375 0 L 1.890625 0 L 1.890625 -10.953125 Z M 4.28125 -4.625 C 5.175781 -4.707031 5.863281 -5.035156 6.34375 -5.609375 C 6.832031 -6.191406 7.078125 -6.957031 7.078125 -7.90625 C 7.078125 -8.75 6.847656 -9.40625 6.390625 -9.875 C 5.929688 -10.351562 5.28125 -10.609375 4.4375 -10.640625 L 2.234375 -10.625 L 2.234375 -4.625 Z M 4.28125 -4.625 "/></g></g></g><g fill="#ffffff" fill-opacity="1"><g transform="translate(148.667439, 332.321945)"><g><path d="M 4.90625 -4.59375 C 5.789062 -3.125 6.828125 -1.625 8.015625 -0.09375 L 8.015625 -0.015625 C 7.953125 0.0351562 7.878906 0.0820312 7.796875 0.125 L 7.703125 0.09375 C 6.472656 -1.519531 5.414062 -3.054688 4.53125 -4.515625 L 2.234375 -4.515625 L 2.234375 0 L 1.890625 0 L 1.890625 -10.953125 L 4.3125 -10.984375 C 5.3125 -10.984375 6.078125 -10.722656 6.609375 -10.203125 C 7.148438 -9.691406 7.421875 -8.945312 7.421875 -7.96875 C 7.421875 -7.125 7.203125 -6.410156 6.765625 -5.828125 C 6.335938 -5.253906 5.71875 -4.84375 4.90625 -4.59375 Z M 2.234375 -4.859375 L 4.671875 -4.859375 C 5.441406 -5.054688 6.035156 -5.421875 6.453125 -5.953125 C 6.867188 -6.492188 7.078125 -7.164062 7.078125 -7.96875 C 7.078125 -8.820312 6.847656 -9.476562 6.390625 -9.9375 C 5.929688 -10.394531 5.28125 -10.625 4.4375 -10.625 L 2.234375 -10.625 Z M 2.234375 -4.859375 "/></g></g></g><g fill="#ffffff" fill-opacity="1"><g transform="translate(166.745291, 332.321945)"><g><path d="M 5.46875 -11.03125 C 6.90625 -11.03125 8.007812 -10.566406 8.78125 -9.640625 C 9.5625 -8.710938 9.953125 -7.382812 9.953125 -5.65625 C 9.953125 -3.8125 9.550781 -2.390625 8.75 -1.390625 C 7.945312 -0.398438 6.796875 0.09375 5.296875 0.09375 C 3.859375 0.09375 2.753906 -0.382812 1.984375 -1.34375 C 1.210938 -2.300781 0.828125 -3.671875 0.828125 -5.453125 C 0.828125 -7.242188 1.226562 -8.617188 2.03125 -9.578125 C 2.832031 -10.546875 3.976562 -11.03125 5.46875 -11.03125 Z M 5.46875 -10.6875 C 4.082031 -10.6875 3.019531 -10.234375 2.28125 -9.328125 C 1.539062 -8.421875 1.171875 -7.128906 1.171875 -5.453125 C 1.171875 -3.785156 1.523438 -2.503906 2.234375 -1.609375 C 2.941406 -0.710938 3.960938 -0.265625 5.296875 -0.265625 C 6.679688 -0.265625 7.742188 -0.726562 8.484375 -1.65625 C 9.234375 -2.59375 9.609375 -3.925781 9.609375 -5.65625 C 9.609375 -7.269531 9.25 -8.507812 8.53125 -9.375 C 7.8125 -10.25 6.789062 -10.6875 5.46875 -10.6875 Z M 5.46875 -10.6875 "/></g></g></g><g fill="#ffffff" fill-opacity="1"><g transform="translate(186.694903, 332.321945)"><g><path d="M 2.75 -1.984375 C 2.75 -1.179688 2.578125 -0.503906 2.234375 0.046875 C 1.898438 0.609375 1.332031 1.15625 0.53125 1.6875 L 0.34375 1.5 L 0.34375 1.390625 C 1.070312 0.910156 1.597656 0.414062 1.921875 -0.09375 C 2.242188 -0.613281 2.40625 -1.226562 2.40625 -1.9375 L 2.40625 -10.609375 L 0.203125 -10.609375 L 0.140625 -10.671875 L 0.1875 -10.953125 L 2.75 -10.953125 Z M 2.75 -1.984375 "/></g></g></g><g fill="#ffffff" fill-opacity="1"><g transform="translate(200.479712, 332.321945)"><g><path d="M 7.3125 -0.28125 L 7.234375 0 L 1.890625 0 L 1.890625 -10.953125 L 7.1875 -10.953125 L 7.234375 -10.875 L 7.171875 -10.609375 L 2.234375 -10.609375 L 2.234375 -5.84375 L 6.328125 -5.84375 L 6.375 -5.78125 L 6.3125 -5.5 L 2.234375 -5.5 L 2.234375 -0.34375 L 7.25 -0.34375 Z M 7.3125 -0.28125 "/></g></g></g><g fill="#ffffff" fill-opacity="1"><g transform="translate(217.458548, 332.321945)"><g><path d="M 5.375 -11.015625 C 5.914062 -11.015625 6.445312 -10.925781 6.96875 -10.75 C 7.5 -10.570312 7.976562 -10.320312 8.40625 -10 L 8.28125 -9.71875 L 8.171875 -9.71875 C 7.773438 -10.019531 7.335938 -10.253906 6.859375 -10.421875 C 6.390625 -10.585938 5.894531 -10.671875 5.375 -10.671875 C 4.007812 -10.671875 2.96875 -10.21875 2.25 -9.3125 C 1.53125 -8.40625 1.171875 -7.113281 1.171875 -5.4375 C 1.171875 -3.769531 1.515625 -2.488281 2.203125 -1.59375 C 2.890625 -0.707031 3.878906 -0.265625 5.171875 -0.265625 C 5.722656 -0.265625 6.269531 -0.363281 6.8125 -0.5625 C 7.351562 -0.757812 7.851562 -1.039062 8.3125 -1.40625 L 8.4375 -1.375 L 8.40625 -1.0625 C 7.925781 -0.695312 7.40625 -0.410156 6.84375 -0.203125 C 6.28125 -0.00390625 5.726562 0.09375 5.1875 0.09375 C 3.78125 0.09375 2.703125 -0.382812 1.953125 -1.34375 C 1.203125 -2.300781 0.828125 -3.671875 0.828125 -5.453125 C 0.828125 -7.234375 1.21875 -8.601562 2 -9.5625 C 2.789062 -10.53125 3.914062 -11.015625 5.375 -11.015625 Z M 5.375 -11.015625 "/></g></g></g><g fill="#ffffff" fill-opacity="1"><g transform="translate(235.622249, 332.321945)"><g><path d="M 7.6875 -10.875 L 7.609375 -10.609375 L 4.265625 -10.609375 L 4.265625 0 L 3.921875 0 L 3.921875 -10.609375 L 0.53125 -10.609375 L 0.484375 -10.671875 L 0.546875 -10.953125 L 7.625 -10.953125 Z M 7.6875 -10.875 "/></g></g></g></svg>